<svg viewBox="0 0 512 512" xmlns="http://www.w3.org/2000/svg"><text x="729.64" y="231.36"><tspan x="729.64" y="231.36"/></text><text transform="scale(4.0128 .2492)" x="378.91" y="579.26"/><text x="1310.91" y="151.36"><tspan x="1310.91" y="151.36"/></text><text transform="scale(4.0128 .2492)" x="523.76" y="258.22"/><text x="239.33" y="-29.9"><tspan x="239.33" y="-29.9"/></text><text transform="scale(4.0128 .2492)" x="256.72" y="-469.13"/><text x="1337.38" y="-246.37"><tspan x="1337.38" y="-246.37"/></text><text transform="scale(4.0128 .2492)" x="530.36" y="-1337.8"/><text x="1918.65" y="-326.37"><tspan x="1918.65" y="-326.37"/></text><text transform="scale(4.0128 .2492)" x="675.21" y="-1658.83"/><text x="1529.53" y="-798.77"><tspan x="1529.53" y="-798.77"/></text><text transform="scale(4.0128 .2492)" x="578.24" y="-3554.48"/><text x="2110.79" y="-878.78"><tspan x="2110.79" y="-878.78"/></text><text transform="scale(4.0128 .2492)" x="723.09" y="-3875.52"/><text x="277.99" y="535.94"><tspan x="277.99" y="535.94"/></text><text x="729.64" y="231.36"><tspan x="729.64" y="231.36"/></text><text transform="scale(4.0128 .2492)" x="378.91" y="579.26"/><text x="1310.91" y="151.36"><tspan x="1310.91" y="151.36"/></text><text transform="scale(4.0128 .2492)" x="523.76" y="258.22"/><text x="239.33" y="-29.9"><tspan x="239.33" y="-29.9"/></text><text transform="scale(4.0128 .2492)" x="256.72" y="-469.13"/><text x="1337.38" y="-246.37"><tspan x="1337.38" y="-246.37"/></text><text transform="scale(4.0128 .2492)" x="530.36" y="-1337.8"/><text x="1918.65" y="-326.37"><tspan x="1918.65" y="-326.37"/></text><text transform="scale(4.0128 .2492)" x="675.21" y="-1658.83"/><text x="1529.53" y="-798.77"><tspan x="1529.53" y="-798.77"/></text><text transform="scale(4.0128 .2492)" x="578.24" y="-3554.48"/><text x="2110.79" y="-878.78"><tspan x="2110.79" y="-878.78"/></text><text transform="scale(4.0128 .2492)" x="723.09" y="-3875.52"/><text x="277.99" y="535.94"><tspan x="277.99" y="535.94"/></text><text x="729.64" y="231.36"><tspan x="729.64" y="231.36"/></text><text transform="scale(4.0128 .2492)" x="378.91" y="579.26"/><text x="1310.91" y="151.36"><tspan x="1310.91" y="151.36"/></text><text transform="scale(4.0128 .2492)" x="523.76" y="258.22"/><text x="239.33" y="-29.9"><tspan x="239.33" y="-29.9"/></text><text transform="scale(4.0128 .2492)" x="256.72" y="-469.13"/><text x="1337.38" y="-246.37"><tspan x="1337.38" y="-246.37"/></text><text transform="scale(4.0128 .2492)" x="530.36" y="-1337.8"/><text x="1918.65" y="-326.37"><tspan x="1918.65" y="-326.37"/></text><text transform="scale(4.0128 .2492)" x="675.21" y="-1658.83"/><text x="1529.53" y="-798.77"><tspan x="1529.53" y="-798.77"/></text><text transform="scale(4.0128 .2492)" x="578.24" y="-3554.48"/><text x="2110.79" y="-878.78"><tspan x="2110.79" y="-878.78"/></text><text transform="scale(4.0128 .2492)" x="723.09" y="-3875.52"/><text x="277.99" y="535.94"><tspan x="277.99" y="535.94"/></text><text x="1317.57" y="129.39"><tspan x="1317.57" y="129.39"/></text><text transform="scale(4.0128 .2492)" x="525.42" y="170.08"/><text x="1898.84" y="49.39"><tspan x="1898.84" y="49.39"/></text><text transform="scale(4.0128 .2492)" x="670.27" y="-150.95"/><text x="827.26" y="-131.87"><tspan x="827.26" y="-131.87"/></text><text transform="scale(4.0128 .2492)" x="403.23" y="-878.31"/><text x="1925.31" y="-348.34"><tspan x="1925.31" y="-348.34"/></text><text transform="scale(4.0128 .2492)" x="676.87" y="-1746.97"/><text x="2506.58" y="-428.35"><tspan x="2506.58" y="-428.35"/></text><text transform="scale(4.0128 .2492)" x="821.72" y="-2068.01"/><text x="2117.46" y="-900.75"><tspan x="2117.46" y="-900.75"/></text><text transform="scale(4.0128 .2492)" x="724.75" y="-3963.66"/><text x="2698.72" y="-980.75"><tspan x="2698.72" y="-980.75"/></text><text transform="scale(4.0128 .2492)" x="869.6" y="-4284.69"/><text x="865.92" y="433.97"><tspan x="865.92" y="433.97"/></text><text x="729.64" y="231.36"><tspan x="729.64" y="231.36"/></text><text transform="scale(4.0128 .2492)" x="378.91" y="579.25"/><text x="1310.91" y="151.36"><tspan x="1310.91" y="151.36"/></text><text transform="scale(4.0128 .2492)" x="523.76" y="258.22"/><text x="239.33" y="-29.901"><tspan x="239.33" y="-29.901"/></text><text transform="scale(4.0128 .2492)" x="256.72" y="-469.14"/><text x="1337.38" y="-246.37"><tspan x="1337.38" y="-246.37"/></text><text transform="scale(4.0128 .2492)" x="530.36" y="-1337.8"/><text x="1918.65" y="-326.38"><tspan x="1918.65" y="-326.38"/></text><text transform="scale(4.0128 .2492)" x="675.21" y="-1658.84"/><text x="1529.53" y="-798.78"><tspan x="1529.53" y="-798.78"/></text><text transform="scale(4.0128 .2492)" x="578.24" y="-3554.49"/><text x="2110.79" y="-878.78"><tspan x="2110.79" y="-878.78"/></text><text transform="scale(4.0128 .2492)" x="723.09" y="-3875.52"/><text x="277.99" y="535.94"><tspan x="277.99" y="535.94"/></text><text x="-877.95" y="88.17"><tspan x="-877.95" y="88.17"/></text><text transform="scale(4.0128 .2492)" x="-21.706" y="4.666"/><text x="-296.68" y="8.174"><tspan x="-296.68" y="8.174"/></text><text transform="scale(4.0128 .2492)" x="123.14" y="-316.36"/><text x="-1368.26" y="-173.09"><tspan x="-1368.26" y="-173.09"/></text><text transform="scale(4.0128 .2492)" x="-143.9" y="-1043.72"/><text x="-270.21" y="-389.56"><tspan x="-270.21" y="-389.56"/></text><text transform="scale(4.0128 .2492)" x="129.74" y="-1912.38"/><text x="311.06" y="-469.57"><tspan x="311.06" y="-469.57"/></text><text transform="scale(4.0128 .2492)" x="274.59" y="-2233.42"/><text x="-78.06" y="-941.97"><tspan x="-78.06" y="-941.97"/></text><text transform="scale(4.0128 .2492)" x="177.62" y="-4129.07"/><text x="503.2" y="-1021.97"><tspan x="503.2" y="-1021.97"/></text><text transform="scale(4.0128 .2492)" x="322.47" y="-4450.1"/><text x="-1329.6" y="392.75"><tspan x="-1329.6" y="392.75"/></text><text x="-1758.51" y="-104.32"><tspan x="-1758.51" y="-104.32"/></text><text transform="scale(4.0128 .2492)" x="-120.49" y="-981.51"/><text x="-2406.27" y="-872.27"><tspan x="-2406.27" y="-872.27"/></text><text transform="scale(4.0128 .2492)" x="-281.92" y="-4063.17"/><text x="-1699.93" y="-1027.9"><tspan x="-1699.93" y="-1027.9"/></text><text transform="scale(4.0128 .2492)" x="-105.9" y="-4687.7"/><text x="-802.02" y="183.63"><tspan x="-802.02" y="183.63"/></text><text transform="scale(4.0128 .2492)" x="-2.784" y="387.72"/><text x="-220.75" y="103.63"><tspan x="-220.75" y="103.63"/></text><text transform="scale(4.0128 .2492)" x="142.07" y="66.69"/><text x="-1292.33" y="-77.63"><tspan x="-1292.33" y="-77.63"/></text><text transform="scale(4.0128 .2492)" x="-124.97" y="-660.66"/><text x="-194.28" y="-294.1"><tspan x="-194.28" y="-294.1"/></text><text transform="scale(4.0128 .2492)" x="148.67" y="-1529.33"/><text x="386.99" y="-374.11"><tspan x="386.99" y="-374.11"/></text><text transform="scale(4.0128 .2492)" x="293.51" y="-1850.37"/><text x="-2.131" y="-846.51"><tspan x="-2.131" y="-846.51"/></text><text transform="scale(4.0128 .2492)" x="196.55" y="-3746.02"/><text x="579.13" y="-926.51"><tspan x="579.13" y="-926.51"/></text><text transform="scale(4.0128 .2492)" x="341.39" y="-4067.05"/><text x="-1253.67" y="488.21"><tspan x="-1253.67" y="488.21"/></text><text x="-596.63" y="686.33"><tspan x="-596.63" y="686.33"/></text><text transform="scale(4.0128 .2492)" x="48.4" y="2404.96"/><text x="-15.356" y="606.33"><tspan x="-15.356" y="606.33"/></text><text transform="scale(4.0128 .2492)" x="193.25" y="2083.93"/><text x="-1086.94" y="425.07"><tspan x="-1086.94" y="425.07"/></text><text transform="scale(4.0128 .2492)" x="-73.79" y="1356.58"/><text x="11.11" y="208.6"><tspan x="11.11" y="208.6"/></text><text transform="scale(4.0128 .2492)" x="199.85" y="487.91"/><text x="592.38" y="128.59"><tspan x="592.38" y="128.59"/></text><text transform="scale(4.0128 .2492)" x="344.7" y="166.87"/><text x="203.26" y="-343.81"><tspan x="203.26" y="-343.81"/></text><text transform="scale(4.0128 .2492)" x="247.73" y="-1728.78"/><text x="784.52" y="-423.81"><tspan x="784.52" y="-423.81"/></text><text transform="scale(4.0128 .2492)" x="392.58" y="-2049.81"/><text x="-1048.28" y="990.91"><tspan x="-1048.28" y="990.91"/></text><text x="-1540.36" y="608.23"><tspan x="-1540.36" y="608.23"/></text><text transform="scale(4.0128 .2492)" x="-186.78" y="2091.55"/><text x="-959.09" y="528.23"><tspan x="-959.09" y="528.23"/></text><text transform="scale(4.0128 .2492)" x="-41.928" y="1770.52"/><text x="-2030.67" y="346.97"><tspan x="-2030.67" y="346.97"/></text><text transform="scale(4.0128 .2492)" x="-308.97" y="1043.17"/><text x="-932.62" y="130.5"><tspan x="-932.62" y="130.5"/></text><text transform="scale(4.0128 .2492)" x="-35.33" y="174.5"/><text x="-351.35" y="50.49"><tspan x="-351.35" y="50.49"/></text><text transform="scale(4.0128 .2492)" x="109.52" y="-146.54"/><text x="-740.47" y="-421.91"><tspan x="-740.47" y="-421.91"/></text><text transform="scale(4.0128 .2492)" x="12.551" y="-2042.19"/><text x="-159.21" y="-501.91"><tspan x="-159.21" y="-501.91"/></text><text transform="scale(4.0128 .2492)" x="157.4" y="-2363.22"/><text x="-1992.01" y="912.81"><tspan x="-1992.01" y="912.81"/></text><text x="-1292.9" y="683.07"><tspan x="-1292.9" y="683.07"/></text><text transform="scale(4.0128 .2492)" x="-125.11" y="2391.89"/><text x="-711.63" y="603.07"><tspan x="-711.63" y="603.07"/></text><text transform="scale(4.0128 .2492)" x="19.737" y="2070.86"/><text x="-1783.21" y="421.81"><tspan x="-1783.21" y="421.81"/></text><text transform="scale(4.0128 .2492)" x="-247.3" y="1343.51"/><text x="-685.16" y="205.34"><tspan x="-685.16" y="205.34"/></text><text transform="scale(4.0128 .2492)" x="26.337" y="474.84"/><text x="-103.89" y="125.33"><tspan x="-103.89" y="125.33"/></text><text transform="scale(4.0128 .2492)" x="171.19" y="153.8"/><text x="-493.01" y="-347.07"><tspan x="-493.01" y="-347.07"/></text><text transform="scale(4.0128 .2492)" x="74.22" y="-1741.85"/><text x="88.25" y="-427.07"><tspan x="88.25" y="-427.07"/></text><text transform="scale(4.0128 .2492)" x="219.07" y="-2062.87"/><text x="-1744.55" y="987.65"><tspan x="-1744.55" y="987.65"/></text><text x="-2158.94" y=".817"><tspan x="-2158.94" y=".817"/></text><text transform="scale(4.0128 .2492)" x="-340.93" y="-345.88"/><text x="-1577.67" y="-79.18"><tspan x="-1577.67" y="-79.18"/></text><text transform="scale(4.0128 .2492)" x="-196.08" y="-666.91"/><text x="-2649.25" y="-260.44"><tspan x="-2649.25" y="-260.44"/></text><text transform="scale(4.0128 .2492)" x="-463.12" y="-1394.26"/><text x="-1551.2" y="-476.91"><tspan x="-1551.2" y="-476.91"/></text><text transform="scale(4.0128 .2492)" x="-189.48" y="-2262.93"/><text x="-969.93" y="-556.92"><tspan x="-969.93" y="-556.92"/></text><text transform="scale(4.0128 .2492)" x="-44.632" y="-2583.97"/><text x="-1359.05" y="-1029.32"><tspan x="-1359.05" y="-1029.32"/></text><text transform="scale(4.0128 .2492)" x="-141.6" y="-4479.62"/><text x="-777.79" y="-1109.32"><tspan x="-777.79" y="-1109.32"/></text><text transform="scale(4.0128 .2492)" x="3.248" y="-4800.65"/><text x="-2610.59" y="305.4"><tspan x="-2610.59" y="305.4"/></text><text x="-3039.5" y="-191.68"><tspan x="-3039.5" y="-191.68"/></text><text transform="scale(4.0128 .2492)" x="-439.72" y="-1332.06"/><text x="-3687.26" y="-959.63"><tspan x="-3687.26" y="-959.63"/></text><text transform="scale(4.0128 .2492)" x="-601.14" y="-4413.72"/><text x="-2980.92" y="-1115.26"><tspan x="-2980.92" y="-1115.26"/></text><text transform="scale(4.0128 .2492)" x="-425.12" y="-5038.25"/><text x="-2508.23" y="170.04"><tspan x="-2508.23" y="170.04"/></text><text transform="scale(4.0128 .2492)" x="-427.97" y="333.17"/><text x="-1926.96" y="90.04"><tspan x="-1926.96" y="90.04"/></text><text transform="scale(4.0128 .2492)" x="-283.12" y="12.143"/><text x="-2998.54" y="-91.22"><tspan x="-2998.54" y="-91.22"/></text><text transform="scale(4.0128 .2492)" x="-550.16" y="-715.21"/><text x="-1900.49" y="-307.69"><tspan x="-1900.49" y="-307.69"/></text><text transform="scale(4.0128 .2492)" x="-276.52" y="-1583.88"/><text x="-1319.22" y="-387.7"><tspan x="-1319.22" y="-387.7"/></text><text transform="scale(4.0128 .2492)" x="-131.68" y="-1904.92"/><text x="-1708.34" y="-860.1"><tspan x="-1708.34" y="-860.1"/></text><text transform="scale(4.0128 .2492)" x="-228.64" y="-3800.57"/><text x="-1127.08" y="-940.1"><tspan x="-1127.08" y="-940.1"/></text><text transform="scale(4.0128 .2492)" x="-83.8" y="-4121.6"/><text x="-2959.88" y="474.62"><tspan x="-2959.88" y="474.62"/></text><text x="729.63" y="231.34"><tspan x="729.63" y="231.34"/></text><text transform="scale(4.0128 .2492)" x="378.92" y="579.26"/><text x="1310.91" y="151.36"><tspan x="1310.91" y="151.36"/></text><text transform="scale(4.0128 .2492)" x="523.77" y="258.22"/><text x="239.31" y="-29.902"><tspan x="239.31" y="-29.902"/></text><text transform="scale(4.0128 .2492)" x="256.71" y="-469.13"/><text x="1337.38" y="-246.37"><tspan x="1337.38" y="-246.37"/></text><text transform="scale(4.0128 .2492)" x="530.36" y="-1337.81"/><text x="1918.66" y="-326.37"><tspan x="1918.66" y="-326.37"/></text><text transform="scale(4.0128 .2492)" x="675.21" y="-1658.83"/><text x="1529.54" y="-798.77"><tspan x="1529.54" y="-798.77"/></text><text transform="scale(4.0128 .2492)" x="578.23" y="-3554.49"/><text x="2110.78" y="-878.78"><tspan x="2110.78" y="-878.78"/></text><text transform="scale(4.0128 .2492)" x="723.08" y="-3875.51"/><text x="277.97" y="535.92"><tspan x="277.97" y="535.92"/></text><text x="1313.23" y="100.11"><tspan x="1313.23" y="100.11"/></text><text transform="scale(4.0128 .2492)" x="524.34" y="52.56"/><text x="1894.5" y="20.11"><tspan x="1894.5" y="20.11"/></text><text transform="scale(4.0128 .2492)" x="669.19" y="-268.48"/><text x="822.92" y="-161.15"><tspan x="822.92" y="-161.15"/></text><text transform="scale(4.0128 .2492)" x="402.15" y="-995.83"/><text x="1920.97" y="-377.62"><tspan x="1920.97" y="-377.62"/></text><text transform="scale(4.0128 .2492)" x="675.79" y="-1864.49"/><text x="2502.24" y="-457.62"><tspan x="2502.24" y="-457.62"/></text><text transform="scale(4.0128 .2492)" x="820.64" y="-2185.52"/><text x="2113.12" y="-930.02"><tspan x="2113.12" y="-930.02"/></text><text transform="scale(4.0128 .2492)" x="723.67" y="-4081.16"/><text x="2694.38" y="-1010.03"><tspan x="2694.38" y="-1010.03"/></text><text transform="scale(4.0128 .2492)" x="868.52" y="-4402.2"/><text x="861.58" y="404.69"><tspan x="861.58" y="404.69"/></text><text x="673.23" y="28.706"><tspan x="673.23" y="28.706"/></text><text transform="scale(4.0128 .2492)" x="364.85" y="-233.97"/><text x="1254.5" y="-51.3"><tspan x="1254.5" y="-51.3"/></text><text transform="scale(4.0128 .2492)" x="509.7" y="-555.01"/><text x="182.92" y="-232.55"><tspan x="182.92" y="-232.55"/></text><text transform="scale(4.0128 .2492)" x="242.66" y="-1282.35"/><text x="1280.97" y="-449.02"><tspan x="1280.97" y="-449.02"/></text><text transform="scale(4.0128 .2492)" x="516.3" y="-2151.02"/><text x="1862.24" y="-529.03"><tspan x="1862.24" y="-529.03"/></text><text transform="scale(4.0128 .2492)" x="661.15" y="-2472.05"/><text x="1473.12" y="-1001.43"><tspan x="1473.12" y="-1001.43"/></text><text transform="scale(4.0128 .2492)" x="564.18" y="-4367.69"/><text x="2054.39" y="-1081.43"><tspan x="2054.39" y="-1081.43"/></text><text transform="scale(4.0128 .2492)" x="709.03" y="-4688.72"/><text x="221.58" y="333.29"><tspan x="221.58" y="333.29"/></text><text x="3777.37" y="-714.17"><tspan x="3777.37" y="-714.17"/></text><text transform="scale(4.0128 .2492)" x="1138.4" y="-3214.98"/><text x="4358.64" y="-794.17"><tspan x="4358.64" y="-794.17"/></text><text transform="scale(4.0128 .2492)" x="1283.24" y="-3536"/><text x="3287.06" y="-975.42"><tspan x="3287.06" y="-975.42"/></text><text transform="scale(4.0128 .2492)" x="1016.21" y="-4263.36"/><text x="4385.11" y="-1191.9"><tspan x="4385.11" y="-1191.9"/></text><text transform="scale(4.0128 .2492)" x="1289.84" y="-5132.02"/><text x="4966.38" y="-1271.9"><tspan x="4966.38" y="-1271.9"/></text><text transform="scale(4.0128 .2492)" x="1434.69" y="-5453.04"/><text x="4577.26" y="-1744.3"><tspan x="4577.26" y="-1744.3"/></text><text transform="scale(4.0128 .2492)" x="1337.72" y="-7348.69"/><text x="5158.52" y="-1824.3"><tspan x="5158.52" y="-1824.3"/></text><text transform="scale(4.0128 .2492)" x="1482.57" y="-7669.72"/><text x="3325.72" y="-409.59"><tspan x="3325.72" y="-409.59"/></text><text x="33.713" y="-64.37"><tspan x="33.713" y="-64.37"/></text><text transform="scale(4.0128 .2492)" x="205.48" y="-607.48"/><text x="614.99" y="-144.37"><tspan x="614.99" y="-144.37"/></text><text transform="scale(4.0128 .2492)" x="350.33" y="-928.51"/><text x="-456.6" y="-325.63"><tspan x="-456.6" y="-325.63"/></text><text transform="scale(4.0128 .2492)" x="83.29" y="-1655.86"/><text x="641.46" y="-542.1"><tspan x="641.46" y="-542.1"/></text><text transform="scale(4.0128 .2492)" x="356.93" y="-2524.52"/><text x="1222.72" y="-622.11"><tspan x="1222.72" y="-622.11"/></text><text transform="scale(4.0128 .2492)" x="501.78" y="-2845.56"/><text x="833.6" y="-1094.51"><tspan x="833.6" y="-1094.51"/></text><text transform="scale(4.0128 .2492)" x="404.81" y="-4741.2"/><text x="1414.86" y="-1174.51"><tspan x="1414.86" y="-1174.51"/></text><text transform="scale(4.0128 .2492)" x="549.66" y="-5062.23"/><text x="-417.94" y="240.21"><tspan x="-417.94" y="240.21"/></text><text x="-2641.77" y="221.25"><tspan x="-2641.77" y="221.25"/></text><text transform="scale(4.0128 .2492)" x="-340.61" y="324.92"/><text x="-1935.43" y="65.62"><tspan x="-1935.43" y="65.62"/></text><text transform="scale(4.0128 .2492)" x="-164.59" y="-299.6"/><text x="-1902.06" y="57.5"><tspan x="-1902.06" y="57.5"/></text><text transform="scale(4.0128 .2492)" x="-156.27" y="-332.2"/><text x="-751.64" y="-96.91"><tspan x="-751.64" y="-96.91"/></text><text transform="scale(4.0128 .2492)" x="9.773" y="-738.06"/><text x="-170.38" y="-176.91"><tspan x="-170.38" y="-176.91"/></text><text transform="scale(4.0128 .2492)" x="154.62" y="-1059.1"/><text x="-1241.96" y="-358.17"><tspan x="-1241.96" y="-358.17"/></text><text transform="scale(4.0128 .2492)" x="-112.42" y="-1786.43"/><text x="-143.91" y="-574.64"><tspan x="-143.91" y="-574.64"/></text><text transform="scale(4.0128 .2492)" x="161.22" y="-2655.1"/><text x="437.36" y="-654.64"><tspan x="437.36" y="-654.64"/></text><text transform="scale(4.0128 .2492)" x="306.06" y="-2976.13"/><text x="48.24" y="-1127.04"><tspan x="48.24" y="-1127.04"/></text><text transform="scale(4.0128 .2492)" x="209.1" y="-4871.76"/><text x="629.51" y="-1207.05"><tspan x="629.51" y="-1207.05"/></text><text transform="scale(4.0128 .2492)" x="353.94" y="-5192.8"/><text x="-1203.3" y="207.67"><tspan x="-1203.3" y="207.67"/></text><text x="-802.09" y="-835.92"><tspan x="-802.09" y="-835.92"/></text><text transform="scale(4.0128 .2492)" x="-2.797" y="-3703.55"/><text x="-220.82" y="-915.92"><tspan x="-220.82" y="-915.92"/></text><text transform="scale(4.0128 .2492)" x="142.05" y="-4024.57"/><text x="-1292.4" y="-1097.18"><tspan x="-1292.4" y="-1097.18"/></text><text transform="scale(4.0128 .2492)" x="-124.99" y="-4751.93"/><text x="-194.35" y="-1313.65"><tspan x="-194.35" y="-1313.65"/></text><text transform="scale(4.0128 .2492)" x="148.65" y="-5620.58"/><text x="386.91" y="-1393.66"><tspan x="386.91" y="-1393.66"/></text><text transform="scale(4.0128 .2492)" x="293.49" y="-5941.62"/><text x="-2.207" y="-1866.06"><tspan x="-2.207" y="-1866.06"/></text><text transform="scale(4.0128 .2492)" x="196.53" y="-7837.25"/><text x="579.07" y="-1946.06"><tspan x="579.07" y="-1946.06"/></text><text transform="scale(4.0128 .2492)" x="341.37" y="-8158.27"/><text x="-1253.75" y="-531.34"><tspan x="-1253.75" y="-531.34"/></text><text x="2302.05" y="-1578.8"><tspan x="2302.05" y="-1578.8"/></text><text transform="scale(4.0128 .2492)" x="770.74" y="-6684.54"/><text x="2883.31" y="-1658.8"><tspan x="2883.31" y="-1658.8"/></text><text transform="scale(4.0128 .2492)" x="915.59" y="-7005.58"/><text x="1811.73" y="-1840.05"><tspan x="1811.73" y="-1840.05"/></text><text transform="scale(4.0128 .2492)" x="648.55" y="-7732.91"/><text x="2909.78" y="-2056.53"><tspan x="2909.78" y="-2056.53"/></text><text transform="scale(4.0128 .2492)" x="922.19" y="-8601.57"/><text x="3491.05" y="-2136.53"><tspan x="3491.05" y="-2136.53"/></text><text transform="scale(4.0128 .2492)" x="1067.04" y="-8922.61"/><text x="3101.93" y="-2608.93"><tspan x="3101.93" y="-2608.93"/></text><text transform="scale(4.0128 .2492)" x="970.07" y="-10818.24"/><text x="3683.2" y="-2688.93"><tspan x="3683.2" y="-2688.93"/></text><text transform="scale(4.0128 .2492)" x="1114.92" y="-11139.27"/><text x="1850.39" y="-1274.22"><tspan x="1850.39" y="-1274.22"/></text><text x="-2692.22" y="-520.14"><tspan x="-2692.22" y="-520.14"/></text><text transform="scale(4.0128 .2492)" x="-353.18" y="-2650.13"/><text x="-2692.22" y="-520.14"><tspan x="-2692.22" y="-520.14"/></text><text transform="scale(4.0128 .2492)" x="-353.18" y="-2650.13"/><text x="-3025.77" y="112.77"><tspan x="-3025.77" y="112.77"/></text><text transform="scale(4.0128 .2492)" x="-436.29" y="-110.38"/><text x="-2319.43" y="-42.864"><tspan x="-2319.43" y="-42.864"/></text><text transform="scale(4.0128 .2492)" x="-260.28" y="-734.89"/><text x="1313.23" y="100.11"><tspan x="1313.23" y="100.11"/></text><text transform="scale(4.0128 .2492)" x="524.34" y="52.55"/><text x="1894.5" y="20.11"><tspan x="1894.5" y="20.11"/></text><text transform="scale(4.0128 .2492)" x="669.19" y="-268.48"/><text x="822.92" y="-161.16"><tspan x="822.92" y="-161.16"/></text><text transform="scale(4.0128 .2492)" x="402.15" y="-995.84"/><text x="1920.97" y="-377.62"><tspan x="1920.97" y="-377.62"/></text><text transform="scale(4.0128 .2492)" x="675.79" y="-1864.5"/><text x="2502.24" y="-457.63"><tspan x="2502.24" y="-457.63"/></text><text transform="scale(4.0128 .2492)" x="820.64" y="-2185.54"/><text x="2113.12" y="-930.03"><tspan x="2113.12" y="-930.03"/></text><text transform="scale(4.0128 .2492)" x="723.67" y="-4081.19"/><text x="2694.38" y="-1010.03"><tspan x="2694.38" y="-1010.03"/></text><text transform="scale(4.0128 .2492)" x="868.52" y="-4402.22"/><text x="861.58" y="404.69"><tspan x="861.58" y="404.69"/></text><text x="-1362.25" y="385.73"><tspan x="-1362.25" y="385.73"/></text><text transform="scale(4.0128 .2492)" x="-21.747" y="984.95"/><text x="-655.91" y="230.1"><tspan x="-655.91" y="230.1"/></text><text transform="scale(4.0128 .2492)" x="154.27" y="360.43"/><text x="-622.54" y="221.98"><tspan x="-622.54" y="221.98"/></text><text transform="scale(4.0128 .2492)" x="162.59" y="327.83"/><text x="527.88" y="67.57"><tspan x="527.88" y="67.57"/></text><text transform="scale(4.0128 .2492)" x="328.63" y="-78.03"/><text x="1109.14" y="-12.434"><tspan x="1109.14" y="-12.434"/></text><text transform="scale(4.0128 .2492)" x="473.48" y="-399.07"/><text x="37.563" y="-193.69"><tspan x="37.563" y="-193.69"/></text><text transform="scale(4.0128 .2492)" x="206.44" y="-1126.41"/><text x="1135.61" y="-410.16"><tspan x="1135.61" y="-410.16"/></text><text transform="scale(4.0128 .2492)" x="480.08" y="-1995.08"/><text x="1716.88" y="-490.16"><tspan x="1716.88" y="-490.16"/></text><text transform="scale(4.0128 .2492)" x="624.92" y="-2316.11"/><text x="1327.76" y="-962.56"><tspan x="1327.76" y="-962.56"/></text><text transform="scale(4.0128 .2492)" x="527.96" y="-4211.75"/><text x="1909.02" y="-1042.57"><tspan x="1909.02" y="-1042.57"/></text><text transform="scale(4.0128 .2492)" x="672.8" y="-4532.79"/><text x="76.22" y="372.15"><tspan x="76.22" y="372.15"/></text><text x="477.43" y="-671.44"><tspan x="477.43" y="-671.44"/></text><text transform="scale(4.0128 .2492)" x="316.06" y="-3043.54"/><text x="1058.7" y="-751.44"><tspan x="1058.7" y="-751.44"/></text><text transform="scale(4.0128 .2492)" x="460.91" y="-3364.56"/><text x="-12.877" y="-932.7"><tspan x="-12.877" y="-932.7"/></text><text transform="scale(4.0128 .2492)" x="193.87" y="-4091.92"/><text x="1085.17" y="-1149.17"><tspan x="1085.17" y="-1149.17"/></text><text transform="scale(4.0128 .2492)" x="467.51" y="-4960.58"/><text x="1666.43" y="-1229.18"><tspan x="1666.43" y="-1229.18"/></text><text transform="scale(4.0128 .2492)" x="612.35" y="-5281.62"/><text x="1277.31" y="-1701.58"><tspan x="1277.31" y="-1701.58"/></text><text transform="scale(4.0128 .2492)" x="515.39" y="-7177.26"/><text x="1858.58" y="-1781.58"><tspan x="1858.58" y="-1781.58"/></text><text transform="scale(4.0128 .2492)" x="660.23" y="-7498.28"/><text x="25.773" y="-366.86"><tspan x="25.773" y="-366.86"/></text><text x="3581.57" y="-1414.32"><tspan x="3581.57" y="-1414.32"/></text><text transform="scale(4.0128 .2492)" x="1089.6" y="-6024.54"/><text x="4162.83" y="-1494.32"><tspan x="4162.83" y="-1494.32"/></text><text transform="scale(4.0128 .2492)" x="1234.45" y="-6345.58"/><text x="3091.25" y="-1675.57"><tspan x="3091.25" y="-1675.57"/></text><text transform="scale(4.0128 .2492)" x="967.41" y="-7072.92"/><text x="4189.3" y="-1892.05"><tspan x="4189.3" y="-1892.05"/></text><text transform="scale(4.0128 .2492)" x="1241.05" y="-7941.58"/><text x="4770.57" y="-1972.05"><tspan x="4770.57" y="-1972.05"/></text><text transform="scale(4.0128 .2492)" x="1385.9" y="-8262.62"/><text x="4381.45" y="-2444.45"><tspan x="4381.45" y="-2444.45"/></text><text transform="scale(4.0128 .2492)" x="1288.93" y="-10158.26"/><text x="4962.72" y="-2524.45"><tspan x="4962.72" y="-2524.45"/></text><text transform="scale(4.0128 .2492)" x="1433.78" y="-10479.29"/><text x="3129.91" y="-1109.74"><tspan x="3129.91" y="-1109.74"/></text><text x="-1412.7" y="-355.66"><tspan x="-1412.7" y="-355.66"/></text><text transform="scale(4.0128 .2492)" x="-34.32" y="-1990.11"/><text x="-1412.7" y="-355.66"><tspan x="-1412.7" y="-355.66"/></text><text transform="scale(4.0128 .2492)" x="-34.32" y="-1990.11"/><text x="-1637.77" y="199.15"><tspan x="-1637.77" y="199.15"/></text><text transform="scale(4.0128 .2492)" x="-90.41" y="236.25"/><text x="-931.43" y="43.516"><tspan x="-931.43" y="43.516"/></text><text transform="scale(4.0128 .2492)" x="85.61" y="-388.27"/><g fill-rule="evenodd"><path d="m471.95 253.05c0 120.9-98.01 218.91-218.91 218.91s-218.91-98.01-218.91-218.91 98.01-218.91 218.91-218.91 218.91 98.01 218.91 218.91" fill="#6e6568"/><path d="m256 1c-140.83 0-255 114.17-255 255s114.17 255 255 255 255-114.17 255-255-114.17-255-255-255m8.827 44.931c120.9 0 218.9 98 218.9 218.9s-98 218.9-218.9 218.9-218.93-98-218.93-218.9 98.03-218.9 218.93-218.9" fill-opacity=".067"/><g fill-opacity=".129"><path d="m256 4.43c-138.94 0-251.57 112.63-251.57 251.57s112.63 251.57 251.57 251.57 251.57-112.63 251.57-251.57-112.63-251.57-251.57-251.57m5.885 38.556c120.9 0 218.9 98 218.9 218.9s-98 218.9-218.9 218.9-218.93-98-218.93-218.9 98.03-218.9 218.93-218.9"/><path d="m256 8.36c-136.77 0-247.64 110.87-247.64 247.64s110.87 247.64 247.64 247.64 247.64-110.87 247.64-247.64-110.87-247.64-247.64-247.64m2.942 31.691c120.9 0 218.9 98 218.9 218.9s-98 218.9-218.9 218.9-218.93-98-218.93-218.9 98.03-218.9 218.93-218.9"/></g><path d="m253.04 7.86c-135.42 0-245.19 109.78-245.19 245.19 0 135.42 109.78 245.19 245.19 245.19 135.42 0 245.19-109.78 245.19-245.19 0-135.42-109.78-245.19-245.19-245.19m0 26.297c120.9 0 218.9 98 218.9 218.9s-98 218.9-218.9 218.9-218.93-98-218.93-218.9 98.03-218.9 218.93-218.9z" fill="#fff" stroke="#000" stroke-opacity=".31" stroke-width="4.904"/></g><text x="729.64" y="231.36"><tspan x="729.64" y="231.36"/></text><text transform="scale(4.0128 .2492)" x="378.91" y="579.26"/><text x="1310.91" y="151.36"><tspan x="1310.91" y="151.36"/></text><text transform="scale(4.0128 .2492)" x="523.76" y="258.22"/><text x="239.33" y="-29.9"><tspan x="239.33" y="-29.9"/></text><text transform="scale(4.0128 .2492)" x="256.72" y="-469.13"/><text x="1337.38" y="-246.37"><tspan x="1337.38" y="-246.37"/></text><text transform="scale(4.0128 .2492)" x="530.36" y="-1337.8"/><text x="1918.65" y="-326.37"><tspan x="1918.65" y="-326.37"/></text><text transform="scale(4.0128 .2492)" x="675.21" y="-1658.83"/><text x="1529.53" y="-798.77"><tspan x="1529.53" y="-798.77"/></text><text transform="scale(4.0128 .2492)" x="578.24" y="-3554.48"/><text x="2110.79" y="-878.78"><tspan x="2110.79" y="-878.78"/></text><text transform="scale(4.0128 .2492)" x="723.09" y="-3875.52"/><text x="277.99" y="535.94"><tspan x="277.99" y="535.94"/></text><path d="m290.28 125.14c-16.543 0-33.09 6.204-45.705 18.609l-5.189 5.098-11.561-11.561c-12.625-12.39-33.09-12.39-45.717 0l-74.67 73.814c-25.11 24.653-25.25 64.56-.418 89.4l170.13 170.13c101.63-11.141 182.33-91.84 193.46-193.48l-65.63-65.64c-.138-.138-.278-.275-.418-.412-2.42-2.376-4.986-4.521-7.666-6.441l-60.912-60.912c-12.62-12.405-29.16-18.609-45.705-18.609" opacity=".25"/><path d="m212.55 309.92c-.953.607-1.869 1.324-2.711 2.151-6.318 6.208-6.318 16.253 0 22.44 6.307 6.224 16.551 6.224 23.308.084l102.84-101.05c12.625-12.4 33.09-12.4 45.717 0 12.636 12.4 12.636 32.521 0 44.921l-97.54 96.26c12.636 12.384 33.1 12.384 45.717 0l74.69-73.809c25.24-24.8 25.24-65.02 0-89.81-25.25-24.79-66.18-24.79-91.44 0l-100.59 98.81m157.29-65.21c-6.318-6.197-16.541-6.197-22.869 0-.837.848-1.576 1.727-2.177 2.68l-100.2 98.42c-12.636 12.411-33.09 12.411-45.717 0l-.461-.073c-6.297-6.192-16.53-6.192-22.848 0-6.318 6.218-6.318 16.263 0 22.461.796.769 1.665 1.476 2.575 2.057 25.376 22.79 64.743 22.13 89.3-1.984l102.39-101.1c6.307-6.213 6.307-16.274 0-22.466m-170.96 56.21 102.39-101.11c6.307-6.208 6.307-16.253 0-22.44-6.307-6.218-16.541-6.218-22.858 0-.837.817-1.565 1.706-2.188 2.67l-100.2 98.43c-12.625 12.4-33.09 12.4-45.706 0-12.625-12.4-12.625-32.521 0-44.921l97.53-96.25c-12.625-12.39-33.09-12.39-45.717 0l-74.67 73.815c-25.25 24.79-25.25 65.01 0 89.81 25.24 24.785 66.19 24.785 91.43 0m-57.6-56.21c-6.318 6.197-6.318 16.253 0 22.466 6.307 6.197 16.551 6.197 23.308.052l102.85-101.02c11.971-11.767 31.03-12.379 43.728-1.795l1.513 1.722c6.318 6.187 16.561 6.187 22.869 0 6.218-6.114 6.501-16.17.45-22.377-25.24-24.811-66.17-24.811-91.41 0l-100.6 98.82c-.953.602-1.863 1.309-2.711 2.136" fill="#fff"/></svg>